# xmcd
#
# Track frame offsets:
#	150
#	13730
#	29557
#	43936
#	58009
#	71127
#	83521
#	99325
#	117293
#	133122
#	147717
#
# Disc length: 2123 seconds
#
# Revision: 1
# Processed by: cddbd v1.5.2PL0 Copyright (c) Steve Scherf et al.
# Submitted via: audiograbber 1.83.01
#
DISCID=a108490b
DTITLE=Inger Nordstrom 'n' her Rhinestone Band - Back On Track
DYEAR=2006
DGENRE=
TTITLE0=Easy Street
TTITLE1=Would You Love Me Then
TTITLE2=No Easy Way
TTITLE3=A Wonderful World
TTITLE4=Beatiful  Morning
TTITLE5=Don´t Break The Spell
TTITLE6=Light In The Window
TTITLE7=Comander In Pink
TTITLE8=All That I Am
TTITLE9=No Train At 6:18
TTITLE10=Back On Track
EXTD=
EXTT0=
EXTT1=
EXTT2=
EXTT3=
EXTT4=
EXTT5=
EXTT6=
EXTT7=
EXTT8=
EXTT9=
EXTT10=
PLAYORDER=
